<svg width="63" height="76" viewBox="0 0 63 76" fill="none" xmlns="http://www.w3.org/2000/svg">
<path id="Vector" d="M31.6151 35.3772C31.1816 34.7402 30.5596 34.3409 29.7586 34.1888C28.967 34.0367 28.2508 34.1888 27.61 34.6261C26.9691 35.073 26.5828 35.6719 26.432 36.4325C26.2906 37.2121 26.432 37.9156 26.8655 38.5526C27.299 39.1896 27.9115 39.5889 28.722 39.741C29.5418 39.8931 30.258 39.7505 30.8894 39.3132C31.5208 38.8759 31.8978 38.2674 32.0485 37.4973C32.1899 36.7177 32.0485 36.0142 31.6151 35.3772ZM30.6633 37.2311C30.5879 37.6399 30.39 37.9537 30.0696 38.1913C29.7492 38.429 29.3816 38.5051 28.967 38.429C28.5523 38.353 28.2414 38.1438 28.0246 37.811C27.8079 37.4783 27.7419 37.1075 27.8173 36.6892C27.8927 36.2804 28.0906 35.9667 28.411 35.7385C28.7314 35.5103 29.0989 35.4343 29.5136 35.5103C29.9282 35.5864 30.2392 35.7955 30.4559 36.1283C30.6727 36.461 30.7386 36.8318 30.6633 37.2311ZM35.5919 43.8196C35.1584 43.1826 34.5364 42.7833 33.7354 42.6312C32.9344 42.4791 32.2087 42.6217 31.5774 43.059C30.946 43.4963 30.5596 44.1048 30.4088 44.8749C30.2675 45.6545 30.4088 46.358 30.8423 46.995C31.2758 47.632 31.8978 48.0313 32.6988 48.1834C33.4998 48.3355 34.2254 48.1929 34.8568 47.7555C35.4882 47.3182 35.8746 46.7098 36.0254 45.9397C36.1667 45.1601 36.0254 44.4566 35.5919 43.8196ZM34.6401 45.6735C34.5647 46.0823 34.3668 46.396 34.0464 46.6242C33.726 46.8524 33.3584 46.9284 32.9438 46.8524C32.5292 46.7763 32.2182 46.5672 32.0014 46.2344C31.7847 45.9016 31.7187 45.5309 31.7941 45.1316C31.8695 44.7228 32.0674 44.409 32.3878 44.1809C32.7082 43.9527 33.0757 43.8766 33.4904 43.9527C33.905 44.0287 34.216 44.2379 34.4328 44.5706C34.6495 44.9034 34.7155 45.2647 34.6401 45.6735ZM35.7332 37.06L25.7441 44.8083L26.5074 45.4738L36.5154 37.716L35.7332 37.0695V37.06ZM35.7332 37.06L25.7441 44.8083L26.5074 45.4738L36.5154 37.716L35.7332 37.0695V37.06ZM35.5919 43.8196C35.1584 43.1826 34.5364 42.7833 33.7354 42.6312C32.9344 42.4791 32.2087 42.6217 31.5774 43.059C30.946 43.4963 30.5596 44.1048 30.4088 44.8749C30.2675 45.6545 30.4088 46.358 30.8423 46.995C31.2758 47.632 31.8978 48.0313 32.6988 48.1834C33.4998 48.3355 34.2254 48.1929 34.8568 47.7555C35.4882 47.3182 35.8746 46.7098 36.0254 45.9397C36.1667 45.1601 36.0254 44.4566 35.5919 43.8196ZM34.6401 45.6735C34.5647 46.0823 34.3668 46.396 34.0464 46.6242C33.726 46.8524 33.3584 46.9284 32.9438 46.8524C32.5292 46.7763 32.2182 46.5672 32.0014 46.2344C31.7847 45.9016 31.7187 45.5309 31.7941 45.1316C31.8695 44.7228 32.0674 44.409 32.3878 44.1809C32.7082 43.9527 33.0757 43.8766 33.4904 43.9527C33.905 44.0287 34.216 44.2379 34.4328 44.5706C34.6495 44.9034 34.7155 45.2647 34.6401 45.6735ZM31.6151 35.3677C31.1816 34.7307 30.5596 34.3314 29.7586 34.1793C28.967 34.0272 28.2508 34.1793 27.61 34.6166C26.9691 35.0635 26.5828 35.6624 26.432 36.423C26.2906 37.2026 26.432 37.9061 26.8655 38.5431C27.299 39.1801 27.9115 39.5794 28.722 39.7315C29.5418 39.8836 30.258 39.741 30.8894 39.3037C31.5208 38.8663 31.8978 38.2579 32.0485 37.4878C32.1899 36.7082 32.0485 36.0047 31.6151 35.3677ZM30.6633 37.2216C30.5879 37.6304 30.39 37.9441 30.0696 38.1818C29.7492 38.4195 29.3816 38.4956 28.967 38.4195C28.5523 38.3434 28.2414 38.1343 28.0246 37.8015C27.8079 37.4688 27.7419 37.098 27.8173 36.6797C27.8927 36.2709 28.0906 35.9571 28.411 35.729C28.7314 35.5008 29.0989 35.4247 29.5136 35.5008C29.9282 35.5769 30.2392 35.786 30.4559 36.1188C30.6727 36.4515 30.7386 36.8223 30.6633 37.2216ZM31.6151 35.3677C31.1816 34.7307 30.5596 34.3314 29.7586 34.1793C28.967 34.0272 28.2508 34.1793 27.61 34.6166C26.9691 35.0635 26.5828 35.6624 26.432 36.423C26.2906 37.2026 26.432 37.9061 26.8655 38.5431C27.299 39.1801 27.9115 39.5794 28.722 39.7315C29.5418 39.8836 30.258 39.741 30.8894 39.3037C31.5208 38.8663 31.8978 38.2579 32.0485 37.4878C32.1899 36.7082 32.0485 36.0047 31.6151 35.3677ZM30.6633 37.2216C30.5879 37.6304 30.39 37.9441 30.0696 38.1818C29.7492 38.4195 29.3816 38.4956 28.967 38.4195C28.5523 38.3434 28.2414 38.1343 28.0246 37.8015C27.8079 37.4688 27.7419 37.098 27.8173 36.6797C27.8927 36.2709 28.0906 35.9571 28.411 35.729C28.7314 35.5008 29.0989 35.4247 29.5136 35.5008C29.9282 35.5769 30.2392 35.786 30.4559 36.1188C30.6727 36.4515 30.7386 36.8223 30.6633 37.2216ZM35.5919 43.8101C35.1584 43.1731 34.5364 42.7738 33.7354 42.6217C32.9344 42.4696 32.2087 42.6122 31.5774 43.0495C30.946 43.4868 30.5596 44.0953 30.4088 44.8654C30.2675 45.645 30.4088 46.3485 30.8423 46.9855C31.2758 47.6224 31.8978 48.0217 32.6988 48.1739C33.4998 48.326 34.2254 48.1834 34.8568 47.746C35.4882 47.3087 35.8746 46.7002 36.0254 45.9302C36.1667 45.1506 36.0254 44.4471 35.5919 43.8101ZM34.6401 45.664C34.5647 46.0728 34.3668 46.3865 34.0464 46.6147C33.726 46.8429 33.3584 46.9189 32.9438 46.8429C32.5292 46.7668 32.2182 46.5576 32.0014 46.2249C31.7847 45.8921 31.7187 45.5214 31.7941 45.1221C31.8695 44.7133 32.0674 44.3995 32.3878 44.1713C32.7082 43.9432 33.0757 43.8671 33.4904 43.9432C33.905 44.0192 34.216 44.2284 34.4328 44.5611C34.6495 44.8939 34.7155 45.2552 34.6401 45.664ZM35.7332 37.0505L25.7441 44.7988L26.5074 45.4643L36.5154 37.7065L35.7332 37.06V37.0505ZM35.7332 37.0505L25.7441 44.7988L26.5074 45.4643L36.5154 37.7065L35.7332 37.06V37.0505ZM35.5919 43.8101C35.1584 43.1731 34.5364 42.7738 33.7354 42.6217C32.9344 42.4696 32.2087 42.6122 31.5774 43.0495C30.946 43.4868 30.5596 44.0953 30.4088 44.8654C30.2675 45.645 30.4088 46.3485 30.8423 46.9855C31.2758 47.6224 31.8978 48.0217 32.6988 48.1739C33.4998 48.326 34.2254 48.1834 34.8568 47.746C35.4882 47.3087 35.8746 46.7002 36.0254 45.9302C36.1667 45.1506 36.0254 44.4471 35.5919 43.8101ZM34.6401 45.664C34.5647 46.0728 34.3668 46.3865 34.0464 46.6147C33.726 46.8429 33.3584 46.9189 32.9438 46.8429C32.5292 46.7668 32.2182 46.5576 32.0014 46.2249C31.7847 45.8921 31.7187 45.5214 31.7941 45.1221C31.8695 44.7133 32.0674 44.3995 32.3878 44.1713C32.7082 43.9432 33.0757 43.8671 33.4904 43.9432C33.905 44.0192 34.216 44.2284 34.4328 44.5611C34.6495 44.8939 34.7155 45.2552 34.6401 45.664ZM31.6151 35.3582C31.1816 34.7212 30.5596 34.3219 29.7586 34.1698C28.967 34.0177 28.2508 34.1698 27.61 34.6071C26.9691 35.054 26.5828 35.6529 26.432 36.4135C26.2906 37.1931 26.432 37.8966 26.8655 38.5336C27.299 39.1706 27.9115 39.5699 28.722 39.722C29.5418 39.8741 30.258 39.7315 30.8894 39.2942C31.5208 38.8568 31.8978 38.2484 32.0485 37.4783C32.1899 36.6987 32.0485 35.9952 31.6151 35.3582ZM30.6633 37.2121C30.5879 37.6209 30.39 37.9346 30.0696 38.1723C29.7492 38.41 29.3816 38.4861 28.967 38.41C28.5523 38.3339 28.2414 38.1248 28.0246 37.792C27.8079 37.4593 27.7419 37.0885 27.8173 36.6702C27.8927 36.2614 28.0906 35.9476 28.411 35.7195C28.7314 35.4913 29.0989 35.4152 29.5136 35.4913C29.9282 35.5674 30.2392 35.7765 30.4559 36.1093C30.6727 36.442 30.7386 36.8128 30.6633 37.2121ZM31.6151 35.3582C31.1816 34.7212 30.5596 34.3219 29.7586 34.1698C28.967 34.0177 28.2508 34.1698 27.61 34.6071C26.9691 35.054 26.5828 35.6529 26.432 36.4135C26.2906 37.1931 26.432 37.8966 26.8655 38.5336C27.299 39.1706 27.9115 39.5699 28.722 39.722C29.5418 39.8741 30.258 39.7315 30.8894 39.2942C31.5208 38.8568 31.8978 38.2484 32.0485 37.4783C32.1899 36.6987 32.0485 35.9952 31.6151 35.3582ZM30.6633 37.2121C30.5879 37.6209 30.39 37.9346 30.0696 38.1723C29.7492 38.41 29.3816 38.4861 28.967 38.41C28.5523 38.3339 28.2414 38.1248 28.0246 37.792C27.8079 37.4593 27.7419 37.0885 27.8173 36.6702C27.8927 36.2614 28.0906 35.9476 28.411 35.7195C28.7314 35.4913 29.0989 35.4152 29.5136 35.4913C29.9282 35.5674 30.2392 35.7765 30.4559 36.1093C30.6727 36.442 30.7386 36.8128 30.6633 37.2121ZM35.5919 43.8006C35.1584 43.1636 34.5364 42.7643 33.7354 42.6122C32.9344 42.4601 32.2087 42.6027 31.5774 43.04C30.946 43.4773 30.5596 44.0858 30.4088 44.8559C30.2675 45.6354 30.4088 46.339 30.8423 46.976C31.2758 47.6129 31.8978 48.0122 32.6988 48.1644C33.4998 48.3165 34.2254 48.1739 34.8568 47.7365C35.4882 47.2992 35.8746 46.6907 36.0254 45.9207C36.1667 45.1411 36.0254 44.4375 35.5919 43.8006ZM34.6401 45.6545C34.5647 46.0633 34.3668 46.377 34.0464 46.6052C33.726 46.8334 33.3584 46.9094 32.9438 46.8334C32.5292 46.7573 32.2182 46.5481 32.0014 46.2154C31.7847 45.8826 31.7187 45.5119 31.7941 45.1126C31.8695 44.7037 32.0674 44.39 32.3878 44.1618C32.7082 43.9337 33.0757 43.8576 33.4904 43.9337C33.905 44.0097 34.216 44.2189 34.4328 44.5516C34.6495 44.8844 34.7155 45.2457 34.6401 45.6545ZM35.7332 37.041L25.7441 44.7893L26.5074 45.4548L36.5154 37.697L35.7332 37.0505V37.041ZM35.7332 37.041L25.7441 44.7893L26.5074 45.4548L36.5154 37.697L35.7332 37.0505V37.041ZM35.5919 43.8006C35.1584 43.1636 34.5364 42.7643 33.7354 42.6122C32.9344 42.4601 32.2087 42.6027 31.5774 43.04C30.946 43.4773 30.5596 44.0858 30.4088 44.8559C30.2675 45.6354 30.4088 46.339 30.8423 46.976C31.2758 47.6129 31.8978 48.0122 32.6988 48.1644C33.4998 48.3165 34.2254 48.1739 34.8568 47.7365C35.4882 47.2992 35.8746 46.6907 36.0254 45.9207C36.1667 45.1411 36.0254 44.4375 35.5919 43.8006ZM34.6401 45.6545C34.5647 46.0633 34.3668 46.377 34.0464 46.6052C33.726 46.8334 33.3584 46.9094 32.9438 46.8334C32.5292 46.7573 32.2182 46.5481 32.0014 46.2154C31.7847 45.8826 31.7187 45.5119 31.7941 45.1126C31.8695 44.7037 32.0674 44.39 32.3878 44.1618C32.7082 43.9337 33.0757 43.8576 33.4904 43.9337C33.905 44.0097 34.216 44.2189 34.4328 44.5516C34.6495 44.8844 34.7155 45.2457 34.6401 45.6545ZM31.6151 35.3487C31.1816 34.7117 30.5596 34.3124 29.7586 34.1603C28.967 34.0082 28.2508 34.1603 27.61 34.5976C26.9691 35.0445 26.5828 35.6434 26.432 36.404C26.2906 37.1836 26.432 37.8871 26.8655 38.5241C27.299 39.1611 27.9115 39.5604 28.722 39.7125C29.5418 39.8646 30.258 39.722 30.8894 39.2847C31.5208 38.8473 31.8978 38.2389 32.0485 37.4688C32.1899 36.6892 32.0485 35.9857 31.6151 35.3487ZM30.6633 37.2026C30.5879 37.6114 30.39 37.9251 30.0696 38.1628C29.7492 38.4005 29.3816 38.4766 28.967 38.4005C28.5523 38.3244 28.2414 38.1153 28.0246 37.7825C27.8079 37.4498 27.7419 37.079 27.8173 36.6607C27.8927 36.2519 28.0906 35.9381 28.411 35.71C28.7314 35.4818 29.0989 35.4057 29.5136 35.4818C29.9282 35.5578 30.2392 35.767 30.4559 36.0998C30.6727 36.4325 30.7386 36.8033 30.6633 37.2026ZM31.6151 35.3487C31.1816 34.7117 30.5596 34.3124 29.7586 34.1603C28.967 34.0082 28.2508 34.1603 27.61 34.5976C26.9691 35.0445 26.5828 35.6434 26.432 36.404C26.2906 37.1836 26.432 37.8871 26.8655 38.5241C27.299 39.1611 27.9115 39.5604 28.722 39.7125C29.5418 39.8646 30.258 39.722 30.8894 39.2847C31.5208 38.8473 31.8978 38.2389 32.0485 37.4688C32.1899 36.6892 32.0485 35.9857 31.6151 35.3487ZM30.6633 37.2026C30.5879 37.6114 30.39 37.9251 30.0696 38.1628C29.7492 38.4005 29.3816 38.4766 28.967 38.4005C28.5523 38.3244 28.2414 38.1153 28.0246 37.7825C27.8079 37.4498 27.7419 37.079 27.8173 36.6607C27.8927 36.2519 28.0906 35.9381 28.411 35.71C28.7314 35.4818 29.0989 35.4057 29.5136 35.4818C29.9282 35.5578 30.2392 35.767 30.4559 36.0998C30.6727 36.4325 30.7386 36.8033 30.6633 37.2026ZM33.5375 62.1209C33.2642 61.7121 32.859 61.4554 32.3407 61.3603C31.8224 61.2652 31.3606 61.3603 30.9648 61.636C30.569 61.9117 30.3146 62.33 30.2109 62.8624C30.1073 63.4044 30.1921 63.8797 30.4654 64.279C30.7386 64.6878 31.1344 64.9445 31.6528 65.0396C32.1711 65.1347 32.6328 65.0396 33.038 64.7639C33.4433 64.4882 33.6977 64.0794 33.7919 63.5374C33.8956 62.9955 33.8014 62.5202 33.5281 62.1114L33.5375 62.1209ZM35.5919 43.7911C35.1584 43.1541 34.5364 42.7548 33.7354 42.6027C32.9344 42.4505 32.2087 42.5932 31.5774 43.0305C30.946 43.4678 30.5596 44.0763 30.4088 44.8464C30.2675 45.6259 30.4088 46.3295 30.8423 46.9665C31.2758 47.6034 31.8978 48.0027 32.6988 48.1549C33.4998 48.307 34.2254 48.1644 34.8568 47.727C35.4882 47.2897 35.8746 46.6812 36.0254 45.9112C36.1667 45.1316 36.0254 44.428 35.5919 43.7911ZM34.6401 45.645C34.5647 46.0538 34.3668 46.3675 34.0464 46.5957C33.726 46.8238 33.3584 46.8999 32.9438 46.8238C32.5292 46.7478 32.2182 46.5386 32.0014 46.2059C31.7847 45.8731 31.7187 45.5023 31.7941 45.103C31.8695 44.6942 32.0674 44.3805 32.3878 44.1523C32.7082 43.9242 33.0757 43.8481 33.4904 43.9242C33.905 44.0002 34.216 44.2094 34.4328 44.5421C34.6495 44.8749 34.7155 45.2361 34.6401 45.645ZM35.7332 37.0315L25.7441 44.7798L26.5074 45.4453L36.5154 37.6875L35.7332 37.041V37.0315ZM35.7332 37.0315L25.7441 44.7798L26.5074 45.4453L36.5154 37.6875L35.7332 37.041V37.0315ZM33.7354 42.6027C32.9344 42.4505 32.2087 42.5932 31.5774 43.0305C30.946 43.4678 30.5596 44.0763 30.4088 44.8464C30.2675 45.6259 30.4088 46.3295 30.8423 46.9665C31.2758 47.6034 31.8978 48.0027 32.6988 48.1549C33.4998 48.307 34.2254 48.1644 34.8568 47.727C35.4882 47.2897 35.8746 46.6812 36.0254 45.9112C36.1667 45.1316 36.0254 44.428 35.5919 43.7911C35.1584 43.1541 34.5364 42.7548 33.7354 42.6027ZM34.6401 45.645C34.5647 46.0538 34.3668 46.3675 34.0464 46.5957C33.726 46.8238 33.3584 46.8999 32.9438 46.8238C32.5292 46.7478 32.2182 46.5386 32.0014 46.2059C31.7847 45.8731 31.7187 45.5023 31.7941 45.103C31.8695 44.6942 32.0674 44.3805 32.3878 44.1523C32.7082 43.9242 33.0757 43.8481 33.4904 43.9242C33.905 44.0002 34.216 44.2094 34.4328 44.5421C34.6495 44.8749 34.7155 45.2361 34.6401 45.645ZM28.7314 39.703C29.5513 39.8551 30.2675 39.7125 30.8988 39.2752C31.5302 38.8378 31.9072 38.2294 32.058 37.4593C32.1993 36.6797 32.058 35.9762 31.6245 35.3392C31.191 34.7022 30.569 34.3029 29.768 34.1508C28.9764 33.9987 28.2602 34.1508 27.6194 34.5881C26.9786 35.035 26.5922 35.6339 26.4414 36.3945C26.3001 37.1741 26.4414 37.8776 26.8749 38.5146C27.3084 39.1516 27.9209 39.5509 28.7314 39.703ZM27.8267 36.6607C27.9021 36.2519 28.1 35.9381 28.4204 35.71C28.7408 35.4818 29.1083 35.4057 29.523 35.4818C29.9376 35.5578 30.2486 35.767 30.4654 36.0998C30.6821 36.4325 30.7481 36.8033 30.6727 37.2026C30.5973 37.6114 30.3994 37.9251 30.079 38.1628C29.7586 38.4005 29.391 38.4766 28.9764 38.4005C28.5618 38.3244 28.2508 38.1153 28.034 37.7825C27.8173 37.4498 27.7513 37.079 27.8267 36.6607ZM33.5375 62.1209C33.2642 61.7121 32.859 61.4554 32.3407 61.3603C31.8224 61.2652 31.3606 61.3603 30.9648 61.636C30.569 61.9117 30.3146 62.33 30.2109 62.8624C30.1073 63.4044 30.1921 63.8797 30.4654 64.279C30.7386 64.6878 31.1344 64.9445 31.6528 65.0396C32.1711 65.1347 32.6328 65.0396 33.038 64.7639C33.4433 64.4882 33.6977 64.0794 33.7919 63.5374C33.8956 62.9955 33.8014 62.5202 33.5281 62.1114L33.5375 62.1209ZM61.8653 6.0571C61.4977 5.56273 61.1396 5.06835 60.7721 4.57398C57.9167 1.99754 54.4111 1.26549 50.7453 1.05633C46.3726 0.799634 42.0943 1.47464 37.9007 2.64402C36.7793 2.95776 35.8275 3.20495 35.1207 1.98803C35.083 1.92148 34.9888 1.89296 34.9228 1.84542C32.0957 -0.322212 28.8633 -0.33172 25.8195 1.86444C20.8531 5.46765 15.9057 9.09939 10.9394 12.7026C8.66824 14.3474 7.37719 16.5625 6.97197 19.3481C4.81393 34.0842 2.63704 48.8203 0.488432 63.566C-0.124112 67.7301 2.24125 70.9055 6.37827 71.5235C15.9528 72.9591 25.5273 74.3851 35.1018 75.7922C39.2389 76.4007 42.3958 74.0524 43.0084 69.8787C45.1758 55.1711 47.3339 40.4635 49.4636 25.7464C49.6238 24.6531 49.5579 23.5123 49.4448 22.3999C49.3788 21.7725 49.4825 21.5158 50.0573 21.2876C53.1766 20.0517 56.0885 18.4354 58.6423 16.2013C60.0653 14.9558 61.2433 13.5202 61.9878 11.7519C62.7888 9.83145 62.6569 7.93001 61.8653 6.04759V6.0571ZM18.959 27.8475L21.3714 28.3039L17.404 49.5714L14.6335 49.0485L18.0354 30.8138L13.2953 31.2986L13.0597 28.7412L18.9684 27.8475H18.959ZM14.5958 62.9005C13.8325 63.1572 13.0409 63.2047 12.2116 63.0526C10.8451 62.7959 9.80851 62.1209 9.09231 61.0371C8.3761 59.9532 8.14051 58.7458 8.38553 57.4053C8.63997 56.0553 9.29021 55.0095 10.3551 54.268C11.4105 53.5264 12.6262 53.2887 13.9927 53.5454C14.8125 53.6975 15.5381 54.0398 16.1601 54.5532C16.7821 55.0761 17.225 55.7035 17.4889 56.4356L15.7832 57.0441C15.6324 56.5877 15.3779 56.2074 15.001 55.9032C14.6335 55.5895 14.1811 55.3898 13.6722 55.2947C12.7864 55.1236 12.0325 55.2757 11.3823 55.7226C10.7415 56.1789 10.3362 56.8444 10.1666 57.7381C10.0064 58.6127 10.1383 59.3923 10.5718 60.0483C11.0053 60.7043 11.665 61.1226 12.5508 61.2842C13.0691 61.3793 13.5592 61.3603 14.0209 61.2082C14.4827 61.0561 14.8596 60.7994 15.1518 60.4381L16.5276 61.636C16.0188 62.2255 15.3779 62.6438 14.6146 62.9005H14.5958ZM18.9401 64.1364L17.2721 63.8227L19.0532 54.287L20.7212 54.6007L18.9401 64.1364ZM26.4131 65.553L24.7451 65.2392L24.8865 64.5072C24.3682 65.0396 23.6708 65.2202 22.785 65.0586C22.0782 64.9255 21.5411 64.5737 21.1641 64.0033C20.7872 63.4424 20.6835 62.7293 20.8437 61.8832L21.5882 57.8712L23.2562 58.1849L22.5494 61.9878C22.4646 62.4251 22.5211 62.7769 22.7096 63.0526C22.8981 63.3283 23.1902 63.4994 23.5766 63.5755C24.0101 63.661 24.3776 63.585 24.6886 63.3663C24.9996 63.1477 25.2069 62.7674 25.3011 62.2255L25.9608 58.6983L27.6288 59.012L26.4131 65.5435V65.553ZM35.4788 63.8892C35.2997 64.8589 34.838 65.61 34.0935 66.1614C33.349 66.7128 32.548 66.903 31.6716 66.7319C30.7669 66.5607 30.1261 66.1139 29.7492 65.3818L29.6078 66.1519L27.9398 65.8382L29.6455 56.6923L31.3135 57.006L30.6821 60.3906C31.2946 59.8487 32.0485 59.668 32.9532 59.8392C33.8296 60.0008 34.5081 60.4761 34.9982 61.2652C35.4882 62.0543 35.6484 62.9195 35.4694 63.8892H35.4788ZM39.3614 42.7263C38.7394 46.0728 37.5237 48.6112 35.7238 50.3415C33.9239 52.0718 31.7376 52.6993 29.1743 52.2144C26.6016 51.7295 24.7923 50.3415 23.7368 48.0693C22.6813 45.7971 22.474 42.9829 23.096 39.6459C23.718 36.3089 24.9336 33.761 26.7336 32.0307C28.5335 30.3004 30.7198 29.6729 33.2925 30.1578C35.8652 30.6426 37.6745 32.0307 38.7206 34.3029C39.776 36.5751 39.9833 39.3892 39.3614 42.7263ZM56.6162 10.0026C55.7021 11.1434 54.6938 12.2748 53.5253 13.1209C49.4636 16.0396 44.8177 17.5513 39.9645 18.4164C38.0515 18.7587 36.1102 18.8918 34.0558 19.1295C33.7825 20.8407 32.9721 22.2573 31.4266 23.2366C29.146 24.6721 26.0173 24.0827 24.3211 21.8675C22.719 19.7664 22.9452 16.5055 24.83 14.7086C27.3744 12.2748 31.0025 12.6266 33.1134 15.4692C33.3019 15.7164 33.7354 15.9255 34.0464 15.916C37.4295 15.8115 40.7184 15.146 43.9413 14.1382C44.0638 14.1002 44.1863 14.0336 44.3371 13.9576C42.8482 11.923 41.3781 9.93602 39.8326 7.84445C40.9351 7.61627 41.9812 7.35958 43.0366 7.17894C46.4763 6.60851 49.9348 6.26626 53.3933 7.01732C54.3545 7.22648 55.3063 7.61627 56.1733 8.09163C57.144 8.61453 57.3042 9.16594 56.6257 10.0026H56.6162ZM25.7535 44.8083L26.5168 45.4738L36.5248 37.716L35.7427 37.0695L25.7535 44.8178V44.8083ZM33.7448 42.6312C32.9438 42.4791 32.2182 42.6217 31.5868 43.059C30.9554 43.4963 30.569 44.1048 30.4182 44.8749C30.2769 45.6545 30.4182 46.358 30.8517 46.995C31.2852 47.632 31.9072 48.0313 32.7082 48.1834C33.5092 48.3355 34.2349 48.1929 34.8662 47.7555C35.4976 47.3182 35.884 46.7098 36.0348 45.9397C36.1761 45.1601 36.0348 44.4566 35.6013 43.8196C35.1678 43.1826 34.5458 42.7833 33.7448 42.6312ZM34.6495 45.6735C34.5741 46.0823 34.3762 46.396 34.0558 46.6242C33.7354 46.8524 33.3679 46.9284 32.9532 46.8524C32.5386 46.7763 32.2276 46.5672 32.0109 46.2344C31.7941 45.9016 31.7281 45.5309 31.8035 45.1316C31.8789 44.7228 32.0768 44.409 32.3972 44.1809C32.7176 43.9527 33.0852 43.8766 33.4998 43.9527C33.9144 44.0287 34.2254 44.2379 34.4422 44.5706C34.6589 44.9034 34.7249 45.2647 34.6495 45.6735ZM32.3595 61.3793C31.8412 61.2842 31.3795 61.3793 30.9837 61.655C30.5879 61.9307 30.3334 62.3491 30.2298 62.8815C30.1261 63.4234 30.2109 63.8987 30.4842 64.298C30.7575 64.7068 31.1533 64.9635 31.6716 65.0586C32.1899 65.1537 32.6517 65.0586 33.0569 64.7829C33.4621 64.5072 33.7165 64.0984 33.8108 63.5565C33.9144 63.0146 33.8202 62.5392 33.5469 62.1304C33.2736 61.7216 32.8684 61.4649 32.3501 61.3698L32.3595 61.3793ZM28.7408 39.7315C29.5607 39.8836 30.2769 39.741 30.9083 39.3037C31.5397 38.8663 31.9166 38.2579 32.0674 37.4878C32.2087 36.7082 32.0674 36.0047 31.6339 35.3677C31.2004 34.7307 30.5784 34.3314 29.7774 34.1793C28.9858 34.0272 28.2696 34.1793 27.6288 34.6166C26.988 35.0635 26.6016 35.6624 26.4508 36.423C26.3095 37.2026 26.4508 37.9061 26.8843 38.5431C27.3178 39.1801 27.9304 39.5794 28.7408 39.7315ZM27.8361 36.6892C27.9115 36.2804 28.1094 35.9667 28.4298 35.7385C28.7502 35.5103 29.1178 35.4343 29.5324 35.5103C29.9471 35.5864 30.258 35.7955 30.4748 36.1283C30.6915 36.461 30.7575 36.8318 30.6821 37.2311C30.6067 37.6399 30.4088 37.9537 30.0884 38.1913C29.768 38.429 29.4005 38.5051 28.9858 38.429C28.5712 38.353 28.2602 38.1438 28.0435 37.811C27.8267 37.4783 27.7607 37.1075 27.8361 36.6892ZM33.5469 62.1494C33.2736 61.7406 32.8684 61.4839 32.3501 61.3888C31.8318 61.2938 31.37 61.3888 30.9742 61.6645C30.5784 61.9402 30.324 62.3586 30.2203 62.891C30.1167 63.4329 30.2015 63.9082 30.4748 64.3075C30.7481 64.7163 31.1439 64.973 31.6622 65.0681C32.1805 65.1632 32.6422 65.0681 33.0475 64.7924C33.4527 64.5167 33.7071 64.1079 33.8014 63.566C33.905 63.0241 33.8108 62.5487 33.5375 62.1399L33.5469 62.1494ZM31.6245 35.3772C31.191 34.7402 30.569 34.3409 29.768 34.1888C28.9764 34.0367 28.2602 34.1888 27.6194 34.6261C26.9786 35.073 26.5922 35.6719 26.4414 36.4325C26.3001 37.2121 26.4414 37.9156 26.8749 38.5526C27.3084 39.1896 27.9209 39.5889 28.7314 39.741C29.5513 39.8931 30.2675 39.7505 30.8988 39.3132C31.5302 38.8759 31.9072 38.2674 32.058 37.4973C32.1993 36.7177 32.058 36.0142 31.6245 35.3772ZM30.6727 37.2311C30.5973 37.6399 30.3994 37.9537 30.079 38.1913C29.7586 38.429 29.391 38.5051 28.9764 38.429C28.5618 38.353 28.2508 38.1438 28.034 37.811C27.8173 37.4783 27.7513 37.1075 27.8267 36.6892C27.9021 36.2804 28.1 35.9667 28.4204 35.7385C28.7408 35.5103 29.1083 35.4343 29.523 35.5103C29.9376 35.5864 30.2486 35.7955 30.4654 36.1283C30.6821 36.461 30.7481 36.8318 30.6727 37.2311ZM35.6013 43.8196C35.1678 43.1826 34.5458 42.7833 33.7448 42.6312C32.9438 42.4791 32.2182 42.6217 31.5868 43.059C30.9554 43.4963 30.569 44.1048 30.4182 44.8749C30.2769 45.6545 30.4182 46.358 30.8517 46.995C31.2852 47.632 31.9072 48.0313 32.7082 48.1834C33.5092 48.3355 34.2349 48.1929 34.8662 47.7555C35.4976 47.3182 35.884 46.7098 36.0348 45.9397C36.1761 45.1601 36.0348 44.4566 35.6013 43.8196ZM34.6495 45.6735C34.5741 46.0823 34.3762 46.396 34.0558 46.6242C33.7354 46.8524 33.3679 46.9284 32.9532 46.8524C32.5386 46.7763 32.2276 46.5672 32.0109 46.2344C31.7941 45.9016 31.7281 45.5309 31.8035 45.1316C31.8789 44.7228 32.0768 44.409 32.3972 44.1809C32.7176 43.9527 33.0852 43.8766 33.4998 43.9527C33.9144 44.0287 34.2254 44.2379 34.4422 44.5706C34.6589 44.9034 34.7249 45.2647 34.6495 45.6735ZM35.7427 37.06L25.7535 44.8083L26.5168 45.4738L36.5248 37.716L35.7427 37.0695V37.06ZM35.7427 37.06L25.7535 44.8083L26.5168 45.4738L36.5248 37.716L35.7427 37.0695V37.06ZM35.6013 43.8196C35.1678 43.1826 34.5458 42.7833 33.7448 42.6312C32.9438 42.4791 32.2182 42.6217 31.5868 43.059C30.9554 43.4963 30.569 44.1048 30.4182 44.8749C30.2769 45.6545 30.4182 46.358 30.8517 46.995C31.2852 47.632 31.9072 48.0313 32.7082 48.1834C33.5092 48.3355 34.2349 48.1929 34.8662 47.7555C35.4976 47.3182 35.884 46.7098 36.0348 45.9397C36.1761 45.1601 36.0348 44.4566 35.6013 43.8196ZM34.6495 45.6735C34.5741 46.0823 34.3762 46.396 34.0558 46.6242C33.7354 46.8524 33.3679 46.9284 32.9532 46.8524C32.5386 46.7763 32.2276 46.5672 32.0109 46.2344C31.7941 45.9016 31.7281 45.5309 31.8035 45.1316C31.8789 44.7228 32.0768 44.409 32.3972 44.1809C32.7176 43.9527 33.0852 43.8766 33.4998 43.9527C33.9144 44.0287 34.2254 44.2379 34.4422 44.5706C34.6589 44.9034 34.7249 45.2647 34.6495 45.6735ZM33.5469 62.1399C33.2736 61.7311 32.8684 61.4744 32.3501 61.3793C31.8318 61.2842 31.37 61.3793 30.9742 61.655C30.5784 61.9307 30.324 62.3491 30.2203 62.8815C30.1167 63.4234 30.2015 63.8987 30.4748 64.298C30.7481 64.7068 31.1439 64.9635 31.6622 65.0586C32.1805 65.1537 32.6422 65.0586 33.0475 64.7829C33.4527 64.5072 33.7071 64.0984 33.8014 63.5565C33.905 63.0146 33.8108 62.5392 33.5375 62.1304L33.5469 62.1399ZM31.6245 35.3677C31.191 34.7307 30.569 34.3314 29.768 34.1793C28.9764 34.0272 28.2602 34.1793 27.6194 34.6166C26.9786 35.0635 26.5922 35.6624 26.4414 36.423C26.3001 37.2026 26.4414 37.9061 26.8749 38.5431C27.3084 39.1801 27.9209 39.5794 28.7314 39.7315C29.5513 39.8836 30.2675 39.741 30.8988 39.3037C31.5302 38.8663 31.9072 38.2579 32.058 37.4878C32.1993 36.7082 32.058 36.0047 31.6245 35.3677ZM30.6727 37.2216C30.5973 37.6304 30.3994 37.9441 30.079 38.1818C29.7586 38.4195 29.391 38.4956 28.9764 38.4195C28.5618 38.3434 28.2508 38.1343 28.034 37.8015C27.8173 37.4688 27.7513 37.098 27.8267 36.6797C27.9021 36.2709 28.1 35.9571 28.4204 35.729C28.7408 35.5008 29.1083 35.4247 29.523 35.5008C29.9376 35.5769 30.2486 35.786 30.4654 36.1188C30.6821 36.4515 30.7481 36.8223 30.6727 37.2216ZM31.6245 35.3677C31.191 34.7307 30.569 34.3314 29.768 34.1793C28.9764 34.0272 28.2602 34.1793 27.6194 34.6166C26.9786 35.0635 26.5922 35.6624 26.4414 36.423C26.3001 37.2026 26.4414 37.9061 26.8749 38.5431C27.3084 39.1801 27.9209 39.5794 28.7314 39.7315C29.5513 39.8836 30.2675 39.741 30.8988 39.3037C31.5302 38.8663 31.9072 38.2579 32.058 37.4878C32.1993 36.7082 32.058 36.0047 31.6245 35.3677ZM30.6727 37.2216C30.5973 37.6304 30.3994 37.9441 30.079 38.1818C29.7586 38.4195 29.391 38.4956 28.9764 38.4195C28.5618 38.3434 28.2508 38.1343 28.034 37.8015C27.8173 37.4688 27.7513 37.098 27.8267 36.6797C27.9021 36.2709 28.1 35.9571 28.4204 35.729C28.7408 35.5008 29.1083 35.4247 29.523 35.5008C29.9376 35.5769 30.2486 35.786 30.4654 36.1188C30.6821 36.4515 30.7481 36.8223 30.6727 37.2216ZM35.6013 43.8101C35.1678 43.1731 34.5458 42.7738 33.7448 42.6217C32.9438 42.4696 32.2182 42.6122 31.5868 43.0495C30.9554 43.4868 30.569 44.0953 30.4182 44.8654C30.2769 45.645 30.4182 46.3485 30.8517 46.9855C31.2852 47.6224 31.9072 48.0217 32.7082 48.1739C33.5092 48.326 34.2349 48.1834 34.8662 47.746C35.4976 47.3087 35.884 46.7002 36.0348 45.9302C36.1761 45.1506 36.0348 44.4471 35.6013 43.8101ZM34.6495 45.664C34.5741 46.0728 34.3762 46.3865 34.0558 46.6147C33.7354 46.8429 33.3679 46.9189 32.9532 46.8429C32.5386 46.7668 32.2276 46.5576 32.0109 46.2249C31.7941 45.8921 31.7281 45.5214 31.8035 45.1221C31.8789 44.7133 32.0768 44.3995 32.3972 44.1713C32.7176 43.9432 33.0852 43.8671 33.4998 43.9432C33.9144 44.0192 34.2254 44.2284 34.4422 44.5611C34.6589 44.8939 34.7249 45.2552 34.6495 45.664ZM35.7427 37.0505L25.7535 44.7988L26.5168 45.4643L36.5248 37.7065L35.7427 37.06V37.0505ZM35.7427 37.0505L25.7535 44.7988L26.5168 45.4643L36.5248 37.7065L35.7427 37.06V37.0505ZM35.6013 43.8101C35.1678 43.1731 34.5458 42.7738 33.7448 42.6217C32.9438 42.4696 32.2182 42.6122 31.5868 43.0495C30.9554 43.4868 30.569 44.0953 30.4182 44.8654C30.2769 45.645 30.4182 46.3485 30.8517 46.9855C31.2852 47.6224 31.9072 48.0217 32.7082 48.1739C33.5092 48.326 34.2349 48.1834 34.8662 47.746C35.4976 47.3087 35.884 46.7002 36.0348 45.9302C36.1761 45.1506 36.0348 44.4471 35.6013 43.8101ZM34.6495 45.664C34.5741 46.0728 34.3762 46.3865 34.0558 46.6147C33.7354 46.8429 33.3679 46.9189 32.9532 46.8429C32.5386 46.7668 32.2276 46.5576 32.0109 46.2249C31.7941 45.8921 31.7281 45.5214 31.8035 45.1221C31.8789 44.7133 32.0768 44.3995 32.3972 44.1713C32.7176 43.9432 33.0852 43.8671 33.4998 43.9432C33.9144 44.0192 34.2254 44.2284 34.4422 44.5611C34.6589 44.8939 34.7249 45.2552 34.6495 45.664ZM31.6245 35.3582C31.191 34.7212 30.569 34.3219 29.768 34.1698C28.9764 34.0177 28.2602 34.1698 27.6194 34.6071C26.9786 35.054 26.5922 35.6529 26.4414 36.4135C26.3001 37.1931 26.4414 37.8966 26.8749 38.5336C27.3084 39.1706 27.9209 39.5699 28.7314 39.722C29.5513 39.8741 30.2675 39.7315 30.8988 39.2942C31.5302 38.8568 31.9072 38.2484 32.058 37.4783C32.1993 36.6987 32.058 35.9952 31.6245 35.3582ZM30.6727 37.2121C30.5973 37.6209 30.3994 37.9346 30.079 38.1723C29.7586 38.41 29.391 38.4861 28.9764 38.41C28.5618 38.3339 28.2508 38.1248 28.034 37.792C27.8173 37.4593 27.7513 37.0885 27.8267 36.6702C27.9021 36.2614 28.1 35.9476 28.4204 35.7195C28.7408 35.4913 29.1083 35.4152 29.523 35.4913C29.9376 35.5674 30.2486 35.7765 30.4654 36.1093C30.6821 36.442 30.7481 36.8128 30.6727 37.2121ZM31.6245 35.3582C31.191 34.7212 30.569 34.3219 29.768 34.1698C28.9764 34.0177 28.2602 34.1698 27.6194 34.6071C26.9786 35.054 26.5922 35.6529 26.4414 36.4135C26.3001 37.1931 26.4414 37.8966 26.8749 38.5336C27.3084 39.1706 27.9209 39.5699 28.7314 39.722C29.5513 39.8741 30.2675 39.7315 30.8988 39.2942C31.5302 38.8568 31.9072 38.2484 32.058 37.4783C32.1993 36.6987 32.058 35.9952 31.6245 35.3582ZM30.6727 37.2121C30.5973 37.6209 30.3994 37.9346 30.079 38.1723C29.7586 38.41 29.391 38.4861 28.9764 38.41C28.5618 38.3339 28.2508 38.1248 28.034 37.792C27.8173 37.4593 27.7513 37.0885 27.8267 36.6702C27.9021 36.2614 28.1 35.9476 28.4204 35.7195C28.7408 35.4913 29.1083 35.4152 29.523 35.4913C29.9376 35.5674 30.2486 35.7765 30.4654 36.1093C30.6821 36.442 30.7481 36.8128 30.6727 37.2121ZM35.6013 43.8006C35.1678 43.1636 34.5458 42.7643 33.7448 42.6122C32.9438 42.4601 32.2182 42.6027 31.5868 43.04C30.9554 43.4773 30.569 44.0858 30.4182 44.8559C30.2769 45.6354 30.4182 46.339 30.8517 46.976C31.2852 47.6129 31.9072 48.0122 32.7082 48.1644C33.5092 48.3165 34.2349 48.1739 34.8662 47.7365C35.4976 47.2992 35.884 46.6907 36.0348 45.9207C36.1761 45.1411 36.0348 44.4375 35.6013 43.8006ZM34.6495 45.6545C34.5741 46.0633 34.3762 46.377 34.0558 46.6052C33.7354 46.8334 33.3679 46.9094 32.9532 46.8334C32.5386 46.7573 32.2276 46.5481 32.0109 46.2154C31.7941 45.8826 31.7281 45.5119 31.8035 45.1126C31.8789 44.7037 32.0768 44.39 32.3972 44.1618C32.7176 43.9337 33.0852 43.8576 33.4998 43.9337C33.9144 44.0097 34.2254 44.2189 34.4422 44.5516C34.6589 44.8844 34.7249 45.2457 34.6495 45.6545ZM35.7427 37.041L25.7535 44.7893L26.5168 45.4548L36.5248 37.697L35.7427 37.0505V37.041ZM35.7427 37.041L25.7535 44.7893L26.5168 45.4548L36.5248 37.697L35.7427 37.0505V37.041ZM35.6013 43.8006C35.1678 43.1636 34.5458 42.7643 33.7448 42.6122C32.9438 42.4601 32.2182 42.6027 31.5868 43.04C30.9554 43.4773 30.569 44.0858 30.4182 44.8559C30.2769 45.6354 30.4182 46.339 30.8517 46.976C31.2852 47.6129 31.9072 48.0122 32.7082 48.1644C33.5092 48.3165 34.2349 48.1739 34.8662 47.7365C35.4976 47.2992 35.884 46.6907 36.0348 45.9207C36.1761 45.1411 36.0348 44.4375 35.6013 43.8006ZM34.6495 45.6545C34.5741 46.0633 34.3762 46.377 34.0558 46.6052C33.7354 46.8334 33.3679 46.9094 32.9532 46.8334C32.5386 46.7573 32.2276 46.5481 32.0109 46.2154C31.7941 45.8826 31.7281 45.5119 31.8035 45.1126C31.8789 44.7037 32.0768 44.39 32.3972 44.1618C32.7176 43.9337 33.0852 43.8576 33.4998 43.9337C33.9144 44.0097 34.2254 44.2189 34.4422 44.5516C34.6589 44.8844 34.7249 45.2457 34.6495 45.6545ZM31.6245 35.3487C31.191 34.7117 30.569 34.3124 29.768 34.1603C28.9764 34.0082 28.2602 34.1603 27.6194 34.5976C26.9786 35.0445 26.5922 35.6434 26.4414 36.404C26.3001 37.1836 26.4414 37.8871 26.8749 38.5241C27.3084 39.1611 27.9209 39.5604 28.7314 39.7125C29.5513 39.8646 30.2675 39.722 30.8988 39.2847C31.5302 38.8473 31.9072 38.2389 32.058 37.4688C32.1993 36.6892 32.058 35.9857 31.6245 35.3487ZM30.6727 37.2026C30.5973 37.6114 30.3994 37.9251 30.079 38.1628C29.7586 38.4005 29.391 38.4766 28.9764 38.4005C28.5618 38.3244 28.2508 38.1153 28.034 37.7825C27.8173 37.4498 27.7513 37.079 27.8267 36.6607C27.9021 36.2519 28.1 35.9381 28.4204 35.71C28.7408 35.4818 29.1083 35.4057 29.523 35.4818C29.9376 35.5578 30.2486 35.767 30.4654 36.0998C30.6821 36.4325 30.7481 36.8033 30.6727 37.2026ZM31.6245 35.3487C31.191 34.7117 30.569 34.3124 29.768 34.1603C28.9764 34.0082 28.2602 34.1603 27.6194 34.5976C26.9786 35.0445 26.5922 35.6434 26.4414 36.404C26.3001 37.1836 26.4414 37.8871 26.8749 38.5241C27.3084 39.1611 27.9209 39.5604 28.7314 39.7125C29.5513 39.8646 30.2675 39.722 30.8988 39.2847C31.5302 38.8473 31.9072 38.2389 32.058 37.4688C32.1993 36.6892 32.058 35.9857 31.6245 35.3487ZM30.6727 37.2026C30.5973 37.6114 30.3994 37.9251 30.079 38.1628C29.7586 38.4005 29.391 38.4766 28.9764 38.4005C28.5618 38.3244 28.2508 38.1153 28.034 37.7825C27.8173 37.4498 27.7513 37.079 27.8267 36.6607C27.9021 36.2519 28.1 35.9381 28.4204 35.71C28.7408 35.4818 29.1083 35.4057 29.523 35.4818C29.9376 35.5578 30.2486 35.767 30.4654 36.0998C30.6821 36.4325 30.7481 36.8033 30.6727 37.2026ZM35.6013 43.7911C35.1678 43.1541 34.5458 42.7548 33.7448 42.6027C32.9438 42.4505 32.2182 42.5932 31.5868 43.0305C30.9554 43.4678 30.569 44.0763 30.4182 44.8464C30.2769 45.6259 30.4182 46.3295 30.8517 46.9665C31.2852 47.6034 31.9072 48.0027 32.7082 48.1549C33.5092 48.307 34.2349 48.1644 34.8662 47.727C35.4976 47.2897 35.884 46.6812 36.0348 45.9112C36.1761 45.1316 36.0348 44.428 35.6013 43.7911ZM34.6495 45.645C34.5741 46.0538 34.3762 46.3675 34.0558 46.5957C33.7354 46.8238 33.3679 46.8999 32.9532 46.8238C32.5386 46.7478 32.2276 46.5386 32.0109 46.2059C31.7941 45.8731 31.7281 45.5023 31.8035 45.103C31.8789 44.6942 32.0768 44.3805 32.3972 44.1523C32.7176 43.9242 33.0852 43.8481 33.4998 43.9242C33.9144 44.0002 34.2254 44.2094 34.4422 44.5421C34.6589 44.8749 34.7249 45.2361 34.6495 45.645ZM35.7427 37.0315L25.7535 44.7798L26.5168 45.4453L36.5248 37.6875L35.7427 37.041V37.0315ZM35.7427 37.0315L25.7535 44.7798L26.5168 45.4453L36.5248 37.6875L35.7427 37.041V37.0315ZM35.6013 43.7911C35.1678 43.1541 34.5458 42.7548 33.7448 42.6027C32.9438 42.4505 32.2182 42.5932 31.5868 43.0305C30.9554 43.4678 30.569 44.0763 30.4182 44.8464C30.2769 45.6259 30.4182 46.3295 30.8517 46.9665C31.2852 47.6034 31.9072 48.0027 32.7082 48.1549C33.5092 48.307 34.2349 48.1644 34.8662 47.727C35.4976 47.2897 35.884 46.6812 36.0348 45.9112C36.1761 45.1316 36.0348 44.428 35.6013 43.7911ZM34.6495 45.645C34.5741 46.0538 34.3762 46.3675 34.0558 46.5957C33.7354 46.8238 33.3679 46.8999 32.9532 46.8238C32.5386 46.7478 32.2276 46.5386 32.0109 46.2059C31.7941 45.8731 31.7281 45.5023 31.8035 45.103C31.8789 44.6942 32.0768 44.3805 32.3972 44.1523C32.7176 43.9242 33.0852 43.8481 33.4998 43.9242C33.9144 44.0002 34.2254 44.2094 34.4422 44.5421C34.6589 44.8749 34.7249 45.2361 34.6495 45.645ZM31.6245 35.3392C31.191 34.7022 30.569 34.3029 29.768 34.1508C28.9764 33.9987 28.2602 34.1508 27.6194 34.5881C26.9786 35.035 26.5922 35.6339 26.4414 36.3945C26.3001 37.1741 26.4414 37.8776 26.8749 38.5146C27.3084 39.1516 27.9209 39.5509 28.7314 39.703C29.5513 39.8551 30.2675 39.7125 30.8988 39.2752C31.5302 38.8378 31.9072 38.2294 32.058 37.4593C32.1993 36.6797 32.058 35.9762 31.6245 35.3392ZM30.6727 37.1931C30.5973 37.6019 30.3994 37.9156 30.079 38.1533C29.7586 38.391 29.391 38.467 28.9764 38.391C28.5618 38.3149 28.2508 38.1058 28.034 37.773C27.8173 37.4403 27.7513 37.0695 27.8267 36.6512C27.9021 36.2424 28.1 35.9286 28.4204 35.7005C28.7408 35.4723 29.1083 35.3962 29.523 35.4723C29.9376 35.5483 30.2486 35.7575 30.4654 36.0902C30.6821 36.423 30.7481 36.7938 30.6727 37.1931Z" fill="#545555" fill-opacity="0.45"/>
</svg>
