<svg width="64" height="64" viewBox="0 0 64 64" fill="none" xmlns="http://www.w3.org/2000/svg">
<g id="2568c9d1-1f29-4503-ba43-f1b7ccf774e6 1">
<path id="Vector" d="M32.907 11.017V21.137H59.094C59.3203 21.1367 59.5372 21.0468 59.6973 20.8869C59.8573 20.727 59.9475 20.5102 59.948 20.284V11.017C59.976 9.69311 59.6103 8.39072 58.8973 7.27486C58.1843 6.15901 57.1561 5.27992 55.943 4.749C55.138 4.39673 54.2716 4.20644 53.393 4.189H26.353C27.2317 4.20694 28.0983 4.39778 28.9032 4.75064C29.7081 5.1035 30.4357 5.61146 31.0443 6.24551C31.6529 6.87955 32.1306 7.62728 32.4502 8.44598C32.7699 9.26467 32.9251 10.1383 32.907 11.017Z" fill="#36A168"/>
<path id="Vector_2" d="M47.1449 4.188H18.8149C17.0621 4.17441 15.3755 4.85713 14.1256 6.08619C12.8757 7.31524 12.1648 8.99014 12.1489 10.743V59.17C12.1487 59.2492 12.1708 59.3269 12.2125 59.3942C12.2542 59.4616 12.3139 59.5159 12.3849 59.551C12.4558 59.5866 12.5352 59.6017 12.6141 59.5946C12.6931 59.5876 12.7685 59.5586 12.8319 59.511L17.4669 55.977C17.6153 55.8639 17.7968 55.8026 17.9834 55.8026C18.17 55.8026 18.3515 55.8639 18.4999 55.977L23.2969 59.639C23.4451 59.7522 23.6264 59.8135 23.8129 59.8135C23.9994 59.8135 24.1807 59.7522 24.3289 59.639L29.1259 55.977C29.2755 55.8625 29.4586 55.8004 29.6469 55.8004C29.8353 55.8004 30.0184 55.8625 30.1679 55.977L34.9649 59.639C35.1131 59.7522 35.2944 59.8135 35.4809 59.8135C35.6674 59.8135 35.8487 59.7522 35.9969 59.639L40.7939 55.977C40.9425 55.8643 41.1239 55.8034 41.3104 55.8034C41.4969 55.8034 41.6783 55.8643 41.8269 55.977L46.4619 59.511C46.5252 59.5589 46.6006 59.5881 46.6797 59.5954C46.7587 59.6028 46.8382 59.5878 46.9092 59.5524C46.9802 59.5169 47.0399 59.4624 47.0816 59.3948C47.1232 59.3272 47.1452 59.2494 47.1449 59.17V16.138L47.1459 11.017C47.1181 9.69313 47.4839 8.3908 48.1968 7.27497C48.9098 6.15915 49.9379 5.28003 51.1509 4.749C51.9559 4.3966 52.8224 4.20631 53.7009 4.189L47.1449 4.188Z" fill="#CDE7D9"/>
<g id="Vector_3" style="mix-blend-mode:multiply">
<path d="M19.051 45.188C23.0293 45.1877 26.8445 43.6071 29.6574 40.7939C32.4702 37.9807 34.0503 34.1652 34.05 30.187C34.0498 26.2088 32.4692 22.3935 29.6559 19.5807C26.8427 16.7678 23.0273 15.1877 19.049 15.188C15.0708 15.1883 11.2556 16.7689 8.44274 19.5821C5.62988 22.3953 4.04978 26.2108 4.05005 30.189C4.05031 34.1672 5.63092 37.9824 8.44415 40.7953C11.2574 43.6082 15.0728 45.1883 19.051 45.188Z" fill="#1275E5"/>
</g>
<path id="Vector_4" d="M25.47 20.956C23.94 19.426 21.597 19.292 20.233 20.656L14.68 26.21C13.497 27.394 13.445 29.316 14.453 30.803L11.519 33.737C10.155 35.101 10.289 37.443 11.819 38.973C13.349 40.503 15.692 40.637 17.056 39.273L22.61 33.719C23.794 32.535 23.843 30.613 22.837 29.127L25.771 26.193C27.135 24.829 27.001 22.486 25.471 20.956H25.47ZM21.69 30.996C21.717 31.486 21.55 31.968 21.224 32.336L15.67 37.889C15.3031 38.2144 14.8224 38.3814 14.3327 38.3535C13.8431 38.3256 13.3845 38.105 13.057 37.74C12.6909 37.4127 12.4694 36.9536 12.4409 36.4634C12.4124 35.9731 12.5793 35.4915 12.905 35.124L15.9 32.13C17.343 32.959 19.104 32.86 20.217 31.747L21.553 30.411C21.628 30.597 21.68 30.793 21.691 30.997L21.69 30.996ZM17.242 30.787L18.459 29.57C18.8266 29.2431 19.3088 29.0752 19.8 29.103C19.886 29.108 19.97 29.126 20.052 29.143L18.832 30.363C18.464 30.6882 17.9823 30.8546 17.492 30.826C17.407 30.822 17.325 30.803 17.242 30.787ZM24.386 24.809L21.393 27.8C19.951 26.972 18.187 27.068 17.073 28.182L15.738 29.516C15.6604 29.3305 15.6134 29.1336 15.599 28.933C15.5709 28.4424 15.7381 27.9607 16.064 27.593L21.618 22.039C21.9854 21.713 22.467 21.546 22.9574 21.5745C23.4477 21.603 23.9068 21.8247 24.234 22.191C24.5997 22.5188 24.8209 22.9779 24.8494 23.4682C24.8778 23.9584 24.7113 24.4411 24.386 24.809Z" fill="#CCE4FF"/>
</g>
</svg>
