<svg width="64" height="64" viewBox="0 0 64 64" fill="none" xmlns="http://www.w3.org/2000/svg">
<g id="c0755514-eae2-4d59-bed6-72efe0fcf030 1">
<path id="Vector" d="M55.5 4H27.5C26.3954 4 25.5 4.89543 25.5 6V58C25.5 59.1046 26.3954 60 27.5 60H55.5C56.6046 60 57.5 59.1046 57.5 58V6C57.5 4.89543 56.6046 4 55.5 4Z" fill="#CDE7D9"/>
<path id="Vector_2" d="M40 53H44C44.3978 53 44.7794 53.158 45.0607 53.4393C45.342 53.7206 45.5 54.1022 45.5 54.5C45.5 54.8978 45.342 55.2794 45.0607 55.5607C44.7794 55.842 44.3978 56 44 56H40C39.6022 56 39.2206 55.842 38.9393 55.5607C38.658 55.2794 38.5 54.8978 38.5 54.5C38.5 54.1022 38.658 53.7206 38.9393 53.4393C39.2206 53.158 39.6022 53 40 53Z" fill="#36A168"/>
<g id="Vector_3" style="mix-blend-mode:multiply">
<path fill-rule="evenodd" clip-rule="evenodd" d="M15.881 14.004H32.5C33.0304 14.004 33.5391 14.2147 33.9142 14.5898C34.2893 14.9649 34.5 15.4736 34.5 16.004V47.604C34.5 47.653 34.485 47.701 34.458 47.743C34.4303 47.7857 34.3911 47.8196 34.345 47.841C34.2981 47.8628 34.2462 47.872 34.1947 47.8676C34.1431 47.8632 34.0936 47.8454 34.051 47.816L31.005 45.616C30.9062 45.5447 30.7874 45.5063 30.6655 45.5063C30.5436 45.5063 30.4248 45.5447 30.326 45.616L27.174 47.896C27.0749 47.9668 26.9562 48.0048 26.8345 48.0048C26.7128 48.0048 26.5941 47.9668 26.495 47.896L23.342 45.616C23.2427 45.5435 23.1229 45.5044 23 45.5044C22.8771 45.5044 22.7573 45.5435 22.658 45.616L19.505 47.896C19.4062 47.9673 19.2874 48.0057 19.1655 48.0057C19.0436 48.0057 18.9248 47.9673 18.826 47.896L15.674 45.616C15.5749 45.5452 15.4562 45.5072 15.3345 45.5072C15.2128 45.5072 15.0941 45.5452 14.995 45.616L11.949 47.816C11.9175 47.8381 11.882 47.8538 11.8445 47.8621C11.8069 47.8704 11.7681 47.8711 11.7303 47.8644C11.6924 47.8576 11.6563 47.8434 11.624 47.8225C11.5917 47.8017 11.5638 47.7747 11.542 47.743C11.5148 47.7014 11.5002 47.6527 11.5 47.603V18.084C11.504 17.614 11.505 16.79 11.504 16.005C11.5035 15.7422 11.5547 15.4819 11.6548 15.2389C11.7549 14.996 11.9018 14.7751 12.0872 14.5889C12.2727 14.4027 12.493 14.2549 12.7356 14.1538C12.9781 14.0528 13.2382 14.0005 13.501 14C14.391 14 15.354 14 15.881 14.004Z" fill="#1275E5"/>
</g>
<path id="Vector_4" d="M8 25H23C23.3978 25 23.7794 25.158 24.0607 25.4393C24.342 25.7206 24.5 26.1022 24.5 26.5C24.5 26.8978 24.342 27.2794 24.0607 27.5607C23.7794 27.842 23.3978 28 23 28H8C7.60218 28 7.22064 27.842 6.93934 27.5607C6.65804 27.2794 6.5 26.8978 6.5 26.5C6.5 26.1022 6.65804 25.7206 6.93934 25.4393C7.22064 25.158 7.60218 25 8 25ZM8 31H18C18.3978 31 18.7794 31.158 19.0607 31.4393C19.342 31.7206 19.5 32.1022 19.5 32.5C19.5 32.8978 19.342 33.2794 19.0607 33.5607C18.7794 33.842 18.3978 34 18 34H8C7.60218 34 7.22064 33.842 6.93934 33.5607C6.65804 33.2794 6.5 32.8978 6.5 32.5C6.5 32.1022 6.65804 31.7206 6.93934 31.4393C7.22064 31.158 7.60218 31 8 31Z" fill="#CCE4FF"/>
</g>
</svg>
