<svg width="64" height="64" viewBox="0 0 64 64" fill="none" xmlns="http://www.w3.org/2000/svg">
<g id="0b702430-3200-41fa-aac5-9631b2745061 1">
<path id="Vector" d="M25.3899 4.67L10.2899 19.33C10.0661 19.5458 9.88919 19.8055 9.77045 20.0929C9.65171 20.3803 9.59366 20.6891 9.59995 21V57.71C9.60053 58.0125 9.66192 58.3118 9.78045 58.5901C9.89898 58.8684 10.0722 59.12 10.2899 59.33C10.7381 59.7624 11.3373 60.0027 11.9599 60H47.2399C47.8626 60.0027 48.4618 59.7624 48.9099 59.33C49.1276 59.12 49.3009 58.8684 49.4194 58.5901C49.538 58.3118 49.5994 58.0125 49.5999 57.71V6.29C49.5994 5.98751 49.538 5.68823 49.4194 5.40994C49.3009 5.13164 49.1276 4.88001 48.9099 4.67C48.4618 4.23764 47.8626 3.99725 47.2399 4H27.0699C26.7589 4 26.4499 4.058 26.1599 4.17C25.8746 4.28766 25.6135 4.45719 25.3899 4.67Z" fill="#CCE4FF"/>
<path id="Vector_2" d="M46.501 50C49.5084 50.0003 52.4229 48.9577 54.7477 47.0498C57.0724 45.1418 58.6636 42.4867 59.25 39.537C59.6134 37.7052 59.5779 35.8166 59.1458 33.9997C58.7137 32.1829 57.8952 30.4805 56.746 29.0084C55.5968 27.5363 54.144 26.3291 52.4863 25.469C50.8286 24.6089 49.0051 24.1161 47.1399 24.0241C45.2746 23.9321 43.4114 24.2431 41.6772 24.9359C39.9429 25.6287 38.3783 26.687 37.0898 28.0389C35.8014 29.3907 34.8193 31.0043 34.2106 32.7698C33.6018 34.5354 33.3806 36.4113 33.562 38.27C33.8562 41.2629 35.1785 44.0614 37.304 46.189C39.7434 48.6279 43.0514 49.9987 46.501 50Z" fill="#FEA442"/>
<g id="Vector_3" style="mix-blend-mode:multiply">
<path d="M24.91 5.14V16.9C24.9079 17.1576 24.8546 17.4122 24.7533 17.6491C24.6521 17.886 24.5048 18.1005 24.32 18.28C23.938 18.647 23.43 18.855 22.9 18.86H10.78L24.91 5.14Z" fill="#0D68FF"/>
</g>
<g id="Vector_4" style="mix-blend-mode:multiply">
<path d="M26.5 29.5C26.5 29.8978 26.342 30.2794 26.0607 30.5607C25.7794 30.842 25.3978 31 25 31H6C5.60218 31 5.22064 30.842 4.93934 30.5607C4.65804 30.2794 4.5 29.8978 4.5 29.5C4.5 29.1022 4.65804 28.7206 4.93934 28.4393C5.22064 28.158 5.60218 28 6 28H25C25.3978 28 25.7794 28.158 26.0607 28.4393C26.342 28.7206 26.5 29.1022 26.5 29.5ZM20.5 36.5C20.5 36.8978 20.342 37.2794 20.0607 37.5607C19.7794 37.842 19.3978 38 19 38H6C5.60218 38 5.22064 37.842 4.93934 37.5607C4.65804 37.2794 4.5 36.8978 4.5 36.5C4.5 36.1022 4.65804 35.7206 4.93934 35.4393C5.22064 35.158 5.60218 35 6 35H19C19.3978 35 19.7794 35.158 20.0607 35.4393C20.342 35.7206 20.5 36.1022 20.5 36.5Z" fill="#4652CE"/>
</g>
<g id="Vector_5" style="mix-blend-mode:multiply">
<path d="M52.822 30.067H41.3V31.872H44.933C46.626 31.872 47.696 32.696 47.986 34.056H41.3V35.638H47.986C47.696 36.998 46.604 37.8 44.933 37.8H41.3V39.605H45.155L48.3871 45.667H50.7271L47.25 39.315C48.81 38.758 49.8581 37.399 50.1031 35.638H52.822V34.056H50.1031C49.9691 33.098 49.5901 32.295 48.9221 31.649H52.822V30.067Z" fill="#FEA442"/>
</g>
</g>
</svg>
