<svg width="64" height="64" viewBox="0 0 64 64" fill="none" xmlns="http://www.w3.org/2000/svg">
<g id="2ec6a7d5-af15-4f4c-9837-299a2c1511c2 (1) 1">
<path id="Vector" d="M33.407 11.517V21.637H59.594C59.8203 21.6367 60.0372 21.5468 60.1973 21.3869C60.3573 21.227 60.4475 21.0102 60.448 20.784V11.517C60.476 10.1931 60.1103 8.89072 59.3973 7.77486C58.6843 6.65901 57.6561 5.77992 56.443 5.249C55.638 4.89673 54.7716 4.70644 53.893 4.689H26.853C27.7317 4.70694 28.5983 4.89778 29.4032 5.25064C30.2081 5.6035 30.9357 6.11146 31.5443 6.74551C32.1529 7.37955 32.6306 8.12728 32.9502 8.94598C33.2699 9.76467 33.4251 10.6383 33.407 11.517Z" fill="#36A168"/>
<path id="Vector_2" d="M47.646 11.517V16.637H21.187C20.9608 16.637 20.7438 16.5471 20.5838 16.3872C20.4239 16.2272 20.334 16.0102 20.334 15.784V11.517C20.3061 10.1931 20.6718 8.89072 21.3848 7.77486C22.0977 6.65901 23.1259 5.77992 24.339 5.249C25.144 4.8966 26.0105 4.70631 26.889 4.689H54.201C52.8774 4.71513 51.5914 5.13352 50.5058 5.89118C49.4203 6.64883 48.584 7.71165 48.103 8.945C47.7831 9.76396 47.6278 10.638 47.646 11.517Z" fill="#CDE7D9"/>
<path id="Vector_3" d="M19.3151 4.688H47.6451V58.668C47.6454 58.7474 47.6235 58.8253 47.5818 58.8928C47.54 58.9603 47.4802 59.0148 47.409 59.05C47.3381 59.0853 47.2588 59.1002 47.1799 59.0931C47.101 59.0861 47.0256 59.0573 46.9621 59.01L42.327 55.476C42.1786 55.3629 41.9972 55.3016 41.8106 55.3016C41.6239 55.3016 41.4425 55.3629 41.294 55.476L36.4971 59.138C36.3487 59.2507 36.1674 59.3118 35.981 59.3118C35.7947 59.3118 35.6134 59.2507 35.465 59.138L30.668 55.476C30.5185 55.3615 30.3354 55.2994 30.147 55.2994C29.9587 55.2994 29.7756 55.3615 29.626 55.476L24.8291 59.138C24.6807 59.2507 24.4994 59.3118 24.313 59.3118C24.1267 59.3118 23.9454 59.2507 23.7971 59.138L19 55.476C18.8514 55.3633 18.67 55.3024 18.4835 55.3024C18.2971 55.3024 18.1157 55.3633 17.967 55.476L13.332 59.01C13.2688 59.0579 13.1933 59.0871 13.1143 59.0944C13.0353 59.1018 12.9558 59.0868 12.8848 59.0514C12.8137 59.0159 12.7541 58.9614 12.7124 58.8938C12.6708 58.8262 12.6488 58.7484 12.649 58.669V11.243C12.6652 9.49023 13.3762 7.81548 14.626 6.58648C15.8758 5.35748 17.5623 4.67468 19.3151 4.688Z" fill="#CDE7D9"/>
<g id="Vector_4" style="mix-blend-mode:multiply">
<path d="M27.55 18.688H5.55005C5.01962 18.688 4.51091 18.8987 4.13584 19.2738C3.76076 19.6489 3.55005 20.1576 3.55005 20.688V38.688C3.55005 39.2184 3.76076 39.7271 4.13584 40.1022C4.51091 40.4773 5.01962 40.688 5.55005 40.688H27.55V18.688ZM27.55 43.688V15.688C27.55 15.4228 27.6554 15.1684 27.8429 14.9809C28.0305 14.7934 28.2848 14.688 28.55 14.688C28.8153 14.688 29.0696 14.7934 29.2572 14.9809C29.4447 15.1684 29.55 15.4228 29.55 15.688V43.688C29.55 43.9532 29.4447 44.2076 29.2572 44.3951C29.0696 44.5826 28.8153 44.688 28.55 44.688C28.2848 44.688 28.0305 44.5826 27.8429 44.3951C27.6554 44.2076 27.55 43.9532 27.55 43.688Z" fill="#1275E5"/>
</g>
<path id="Vector_5" d="M17.89 22.688H7.55005V24.308H10.81C12.33 24.308 13.29 25.048 13.55 26.268H7.55005V27.688H13.55C13.29 28.908 12.31 29.628 10.81 29.628H7.55005V31.248H11.01L13.91 36.688H16.01L12.89 30.988C14.29 30.488 15.23 29.268 15.45 27.688H17.89V26.268H15.45C15.33 25.408 14.99 24.688 14.39 24.108H17.89V22.688Z" fill="#CCE4FF"/>
</g>
</svg>
