<svg width="64" height="64" viewBox="0 0 64 64" fill="none" xmlns="http://www.w3.org/2000/svg">
<g id="5eae62d8-1e1a-41fb-b21f-53cc428d7362 1">
<g id="Group">
<g id="Vector" style="mix-blend-mode:multiply">
<path d="M31.54 11.37C31.81 10.84 32.25 10.84 32.54 11.37L34.96 16.17C35.1285 16.4574 35.3552 16.7063 35.6256 16.9009C35.8959 17.0955 36.204 17.2315 36.53 17.3L42 18.07C42.59 18.15 42.72 18.56 42.28 18.97L38.35 22.72C38.1244 22.962 37.954 23.25 37.8505 23.5642C37.7469 23.8784 37.7126 24.2113 37.75 24.54L38.67 29.81C38.78 30.4 38.43 30.66 37.89 30.38L33 27.88C32.6941 27.7462 32.3638 27.6771 32.03 27.6771C31.6961 27.6771 31.3659 27.7462 31.06 27.88L26.18 30.38C25.65 30.66 25.3 30.38 25.4 29.81L26.32 24.54C26.3623 24.2111 26.3303 23.8769 26.2265 23.5619C26.1226 23.247 25.9496 22.9593 25.72 22.72L21.79 19C21.36 18.59 21.49 18.18 22.08 18.1L27.54 17.33C27.866 17.2615 28.174 17.1255 28.4444 16.9309C28.7148 16.7363 28.9415 16.4874 29.11 16.2L31.54 11.37Z" fill="#FFB036"/>
</g>
<g id="Vector_2" style="mix-blend-mode:multiply">
<path d="M32 39.88C41.9411 39.88 50 31.8211 50 21.88C50 11.9389 41.9411 3.88 32 3.88C22.0589 3.88 14 11.9389 14 21.88C14 31.8211 22.0589 39.88 32 39.88Z" fill="#FFB036"/>
</g>
<g id="Vector_3" style="mix-blend-mode:multiply">
<path d="M33.01 59.11V45.89C33.01 45.3985 32.6115 45 32.12 45H31.9C31.4085 45 31.01 45.3985 31.01 45.89V59.11C31.01 59.6015 31.4085 60 31.9 60H32.12C32.6115 60 33.01 59.6015 33.01 59.11Z" fill="#B1CDE2"/>
</g>
<g id="Vector_4" style="mix-blend-mode:multiply">
<path d="M38.01 55.14V42.86C38.01 42.385 37.625 42 37.15 42H36.87C36.395 42 36.01 42.385 36.01 42.86V55.14C36.01 55.615 36.395 56 36.87 56H37.15C37.625 56 38.01 55.615 38.01 55.14Z" fill="#B1CDE2"/>
</g>
<g id="Vector_5" style="mix-blend-mode:multiply">
<path d="M28.01 55.14V42.86C28.01 42.385 27.625 42 27.15 42H26.87C26.395 42 26.01 42.385 26.01 42.86V55.14C26.01 55.615 26.395 56 26.87 56H27.15C27.625 56 28.01 55.615 28.01 55.14Z" fill="#B1CDE2"/>
</g>
</g>
</g>
</svg>
