<svg width="64" height="64" viewBox="0 0 64 64" fill="none" xmlns="http://www.w3.org/2000/svg">
<g id="0ac60dcf-7d1b-4352-9fc6-57d6b94e8af4 1">
<path id="Vector" d="M54.292 5.5H5.708C4.48856 5.5 3.5 6.48856 3.5 7.708V56.292C3.5 57.5114 4.48856 58.5 5.708 58.5H54.292C55.5114 58.5 56.5 57.5114 56.5 56.292V7.708C56.5 6.48856 55.5114 5.5 54.292 5.5Z" fill="#CCE4FF"/>
<g id="Vector_2" style="mix-blend-mode:multiply">
<path d="M26.433 21C26.433 20.4033 26.196 19.831 25.774 19.409C25.352 18.9871 24.7798 18.75 24.183 18.75C23.5863 18.75 23.014 18.9871 22.592 19.409C22.1701 19.831 21.933 20.4033 21.933 21V24.335C20.1553 24.8044 18.5687 25.8177 17.395 27.233L14.266 25.426C13.7491 25.1276 13.1348 25.0468 12.5584 25.2014C11.9819 25.3559 11.4904 25.7331 11.192 26.25C10.8936 26.7669 10.8128 27.3812 10.9674 27.9577C11.1219 28.5341 11.4991 29.0256 12.016 29.324L15.494 31.332C15.405 31.8391 15.3605 32.3531 15.361 32.868C15.361 33.945 15.554 34.976 15.907 35.93L12.016 38.176C11.4991 38.4744 11.1219 38.9659 10.9674 39.5423C10.8128 40.1188 10.8936 40.7331 11.192 41.25C11.4904 41.7669 11.9819 42.1441 12.5584 42.2986C13.1348 42.4532 13.7491 42.3724 14.266 42.074L18.509 39.624C19.505 40.4619 20.6744 41.0685 21.933 41.4V46.5C21.933 47.0967 22.1701 47.669 22.592 48.091C23.014 48.5129 23.5863 48.75 24.183 48.75C24.7798 48.75 25.352 48.5129 25.774 48.091C26.196 47.669 26.433 47.0967 26.433 46.5V41.4C27.6916 41.0685 28.861 40.4619 29.857 39.624L34.1 42.074C34.6169 42.3724 35.2312 42.4532 35.8077 42.2986C36.3842 42.1441 36.8756 41.7669 37.174 41.25C37.4724 40.7331 37.5532 40.1188 37.3987 39.5423C37.2441 38.9659 36.8669 38.4744 36.35 38.176L32.459 35.93C32.8212 34.9498 33.0061 33.913 33.005 32.868C33.005 32.344 32.959 31.83 32.872 31.332L36.35 29.324C36.8669 29.0256 37.2441 28.5341 37.3987 27.9577C37.5532 27.3812 37.4724 26.7669 37.174 26.25C36.8756 25.7331 36.3842 25.3559 35.8077 25.2014C35.2312 25.0468 34.6169 25.1276 34.1 25.426L30.971 27.233C29.7973 25.8177 28.2107 24.8044 26.433 24.335V21Z" fill="#575CCE"/>
</g>
<g id="Vector_3" style="mix-blend-mode:multiply">
<path d="M24.183 38.347C27.1195 38.347 29.5 35.9665 29.5 33.03C29.5 30.0935 27.1195 27.713 24.183 27.713C21.2465 27.713 18.866 30.0935 18.866 33.03C18.866 35.9665 21.2465 38.347 24.183 38.347Z" fill="#1074FF"/>
</g>
<g id="Vector_4" style="mix-blend-mode:multiply">
<path d="M50 18.5H58C58.663 18.5 59.2989 18.7634 59.7678 19.2322C60.2366 19.7011 60.5 20.337 60.5 21C60.5 21.663 60.2366 22.2989 59.7678 22.7678C59.2989 23.2366 58.663 23.5 58 23.5H50C49.337 23.5 48.7011 23.2366 48.2322 22.7678C47.7634 22.2989 47.5 21.663 47.5 21C47.5 20.337 47.7634 19.7011 48.2322 19.2322C48.7011 18.7634 49.337 18.5 50 18.5ZM50 41.5H58C58.663 41.5 59.2989 41.7634 59.7678 42.2322C60.2366 42.7011 60.5 43.337 60.5 44C60.5 44.663 60.2366 45.2989 59.7678 45.7678C59.2989 46.2366 58.663 46.5 58 46.5H50C49.337 46.5 48.7011 46.2366 48.2322 45.7678C47.7634 45.2989 47.5 44.663 47.5 44C47.5 43.337 47.7634 42.7011 48.2322 42.2322C48.7011 41.7634 49.337 41.5 50 41.5Z" fill="#1074FF"/>
</g>
</g>
</svg>
